# Blender v2.79 (sub 0) OBJ File: ''
# www.blender.org
o Cone
v -1.239196 0.571679 0.035642
v -1.116008 0.586424 0.187421
v -0.995973 0.638999 0.333218
v -0.883703 0.727383 0.467431
v -0.783512 0.848181 0.584901
v -0.699252 0.996749 0.681116
v -0.634160 1.167378 0.752376
v -0.590738 1.353512 0.795943
v -0.570654 1.547997 0.810144
v -0.574680 1.743359 0.794433
v -0.602661 1.932091 0.749413
v -0.653522 2.106940 0.676814
v -0.725310 2.261185 0.579427
v -0.815263 2.388901 0.460993
v -0.919927 2.485178 0.326065
v -1.035279 2.546318 0.179827
v -1.156885 2.569969 0.027900
v -1.280073 2.555224 -0.123879
v -1.400109 2.502649 -0.269676
v -1.512379 2.414264 -0.403889
v -1.612569 2.293467 -0.521359
v -1.696829 2.144898 -0.617573
v -1.761921 1.974269 -0.688833
v 0.357198 1.501898 -1.223809
v -1.805343 1.788135 -0.732401
v -1.825428 1.593650 -0.746602
v -1.821401 1.398287 -0.730890
v -1.793420 1.209556 -0.685870
v -1.742558 1.034707 -0.613271
v -1.670771 0.880461 -0.515884
v -1.580817 0.752746 -0.397450
v -1.476153 0.656469 -0.262522
v -1.360801 0.595330 -0.116284
vt 0.250000 0.490000
vt 0.250000 0.250000
vt 0.296822 0.485388
vt 0.341844 0.471731
vt 0.383337 0.449553
vt 0.419706 0.419706
vt 0.449553 0.383337
vt 0.471731 0.341844
vt 0.485388 0.296822
vt 0.490000 0.250000
vt 0.485388 0.203178
vt 0.471731 0.158156
vt 0.449553 0.116663
vt 0.419706 0.080294
vt 0.383337 0.050447
vt 0.341844 0.028269
vt 0.296822 0.014612
vt 0.250000 0.010000
vt 0.203178 0.014612
vt 0.158156 0.028269
vt 0.116663 0.050447
vt 0.080294 0.080294
vt 0.050447 0.116663
vt 0.028269 0.158156
vt 0.014611 0.203179
vt 0.010000 0.250000
vt 0.014612 0.296822
vt 0.028269 0.341844
vt 0.050447 0.383337
vt 0.080295 0.419706
vt 0.116663 0.449553
vt 0.158156 0.471731
vt 0.203179 0.485389
vt 0.985388 0.296822
vt 0.796822 0.014612
vt 0.514611 0.203179
vt 0.703179 0.485389
vt 0.750000 0.490000
vt 0.796822 0.485388
vt 0.841844 0.471731
vt 0.883337 0.449553
vt 0.919706 0.419706
vt 0.949553 0.383337
vt 0.971731 0.341844
vt 0.990000 0.250000
vt 0.985388 0.203178
vt 0.971731 0.158156
vt 0.949553 0.116663
vt 0.919706 0.080294
vt 0.883337 0.050447
vt 0.841844 0.028269
vt 0.750000 0.010000
vt 0.703178 0.014612
vt 0.658156 0.028269
vt 0.616663 0.050447
vt 0.580294 0.080294
vt 0.550447 0.116663
vt 0.528269 0.158156
vt 0.510000 0.250000
vt 0.514612 0.296822
vt 0.528269 0.341844
vt 0.550447 0.383337
vt 0.580295 0.419706
vt 0.616663 0.449553
vt 0.658156 0.471731
vn 0.3648 -0.9076 -0.2079
vn 0.4742 -0.8773 -0.0741
vn 0.5787 -0.8139 0.0519
vn 0.6743 -0.7198 0.1651
vn 0.7572 -0.5986 0.2612
vn 0.8244 -0.4551 0.3365
vn 0.8732 -0.2946 0.3882
vn 0.9018 -0.1234 0.4142
vn 0.9090 0.0520 0.4135
vn 0.8946 0.2248 0.3862
vn 0.8592 0.3883 0.3333
vn 0.8040 0.5363 0.2568
vn 0.7312 0.6632 0.1597
vn 0.6437 0.7639 0.0458
vn 0.5447 0.8347 -0.0807
vn 0.4381 0.8729 -0.2148
vn 0.3280 0.8769 -0.3514
vn 0.2186 0.8466 -0.4853
vn 0.1141 0.7832 -0.6112
vn 0.0186 0.6891 -0.7244
vn -0.0644 0.5679 -0.8206
vn -0.1316 0.4243 -0.8959
vn -0.1804 0.2639 -0.9475
vn -0.2090 0.0927 -0.9735
vn -0.2162 -0.0827 -0.9728
vn -0.2018 -0.2555 -0.9455
vn -0.1663 -0.4190 -0.8926
vn -0.1111 -0.5670 -0.8162
vn -0.0384 -0.6939 -0.7191
vn 0.0491 -0.7946 -0.6051
vn 0.1481 -0.8654 -0.4786
vn 0.2547 -0.9036 -0.3445
vn -0.7776 0.0345 0.6278
s off
f 1/1/1 24/2/1 2/3/1
f 2/3/2 24/2/2 3/4/2
f 3/4/3 24/2/3 4/5/3
f 4/5/4 24/2/4 5/6/4
f 5/6/5 24/2/5 6/7/5
f 6/7/6 24/2/6 7/8/6
f 7/8/7 24/2/7 8/9/7
f 8/9/8 24/2/8 9/10/8
f 9/10/9 24/2/9 10/11/9
f 10/11/10 24/2/10 11/12/10
f 11/12/11 24/2/11 12/13/11
f 12/13/12 24/2/12 13/14/12
f 13/14/13 24/2/13 14/15/13
f 14/15/14 24/2/14 15/16/14
f 15/16/15 24/2/15 16/17/15
f 16/17/16 24/2/16 17/18/16
f 17/18/17 24/2/17 18/19/17
f 18/19/18 24/2/18 19/20/18
f 19/20/19 24/2/19 20/21/19
f 20/21/20 24/2/20 21/22/20
f 21/22/21 24/2/21 22/23/21
f 22/23/22 24/2/22 23/24/22
f 23/24/23 24/2/23 25/25/23
f 25/25/24 24/2/24 26/26/24
f 26/26/25 24/2/25 27/27/25
f 27/27/26 24/2/26 28/28/26
f 28/28/27 24/2/27 29/29/27
f 29/29/28 24/2/28 30/30/28
f 30/30/29 24/2/29 31/31/29
f 31/31/30 24/2/30 32/32/30
f 32/32/31 24/2/31 33/33/31
f 33/33/32 24/2/32 1/1/32
f 8/34/33 16/35/33 25/36/33
f 33/37/33 1/38/33 2/39/33
f 2/39/33 3/40/33 4/41/33
f 4/41/33 5/42/33 6/43/33
f 6/43/33 7/44/33 4/41/33
f 7/44/33 8/34/33 4/41/33
f 8/34/33 9/45/33 10/46/33
f 10/46/33 11/47/33 8/34/33
f 11/47/33 12/48/33 8/34/33
f 12/48/33 13/49/33 16/35/33
f 13/49/33 14/50/33 16/35/33
f 14/50/33 15/51/33 16/35/33
f 16/35/33 17/52/33 18/53/33
f 18/53/33 19/54/33 20/55/33
f 20/55/33 21/56/33 22/57/33
f 22/57/33 23/58/33 25/36/33
f 25/36/33 26/59/33 27/60/33
f 27/60/33 28/61/33 29/62/33
f 29/62/33 30/63/33 33/37/33
f 30/63/33 31/64/33 33/37/33
f 31/64/33 32/65/33 33/37/33
f 33/37/33 2/39/33 4/41/33
f 16/35/33 18/53/33 25/36/33
f 18/53/33 20/55/33 25/36/33
f 20/55/33 22/57/33 25/36/33
f 25/36/33 27/60/33 33/37/33
f 27/60/33 29/62/33 33/37/33
f 33/37/33 4/41/33 8/34/33
f 8/34/33 12/48/33 16/35/33
f 33/37/33 8/34/33 25/36/33
